<svg xmlns="http://www.w3.org/2000/svg" viewBox="0 0 426 77" fill="none" role="img" aria-label="Elastic Tree">
  <path d="M16 5c-1.2 3.2-3.8 5.4-6.5 6.8 2.2.9 4 2.6 5.1 4.9-1.4-.4-2.9-.5-4.4-.2 2.8 1.8 4.7 4.8 5.3 8.2.6-3.4 2.5-6.4 5.3-8.2-1.5-.3-3-.2-4.4.2 1.1-2.3 2.9-4 5.1-4.9C19.8 10.4 17.2 8.2 16 5z" fill="#e8a820" transform="translate(4 8) scale(1.15)"/>
  <circle cx="22" cy="58" r="2.2" fill="#2dd4bf"/>
  <path d="M22 52v4.5" stroke="#2dd4bf" stroke-width="1.5" stroke-linecap="round"/>
  <text x="52" y="50" fill="#ffffff" font-family="system-ui, -apple-system, 'Segoe UI', sans-serif" font-size="34" font-weight="700" letter-spacing="-0.02em">Elastic Tree</text>
</svg>
